<svg xmlns="http://www.w3.org/2000/svg" viewBox="0 0 1920 1080" width="1920" height="1080" preserveAspectRatio="xMidYMid slice" role="img" aria-label="trihexagonal background"><title>trihexagonal background</title><defs><linearGradient id="bg" gradientUnits="userSpaceOnUse" x1="0" y1="0" x2="768" y2="1080"><stop offset="0%" stop-color="#eef3f6"/><stop offset="100%" stop-color="#d9e3ea"/></linearGradient><radialGradient id="vig"><stop offset="55%" stop-color="#8fa3b8" stop-opacity="0"/><stop offset="100%" stop-color="#8fa3b8" stop-opacity="0.16"/></radialGradient><radialGradient id="halo"><stop offset="0%" stop-color="#eef3f6" stop-opacity="0.92"/><stop offset="55%" stop-color="#eef3f6" stop-opacity="0.65"/><stop offset="100%" stop-color="#eef3f6" stop-opacity="0"/></radialGradient><filter id="ink" x="-30%" y="-30%" width="160%" height="160%"><feDropShadow dx="0" dy="2" stdDeviation="3" flood-color="#1e293b" flood-opacity="0.25"/></filter></defs><style>@keyframes spin{to{transform:rotate(360deg)}}@keyframes rspin{to{transform:rotate(-360deg)}}@keyframes scan{0%,100%{stroke-opacity:.16}50%{stroke-opacity:.62}}@keyframes wavef{0%,100%{fill-opacity:.12}50%{fill-opacity:.6}}@keyframes light{0%{stroke-opacity:.27;fill-opacity:0}7%{stroke-opacity:.85;fill-opacity:0}16%{stroke-opacity:.85;fill-opacity:.42}26%{stroke-opacity:.27;fill-opacity:0}100%{stroke-opacity:.27;fill-opacity:0}}@keyframes lightb{0%{stroke-opacity:.34}8%{stroke-opacity:.9}24%{stroke-opacity:.34}100%{stroke-opacity:.34}}@keyframes blind{0%,44%{transform:scale(1)}49%,53%{transform:scale(0)}58%,100%{transform:scale(1)}}@keyframes winvis{0%,42%{display:none}43%,59%{display:inline}60%,100%{display:none}}.spin{animation:spin 24s linear infinite;transform-box:fill-box;transform-origin:center}.rspin{animation:rspin 24s linear infinite;transform-box:fill-box;transform-origin:center}.scan{animation:scan 5s ease-in-out infinite}.wavef{animation:wavef 5s ease-in-out infinite}.light{animation:light 9s ease-in-out infinite}.lightb{animation:lightb 9s ease-in-out infinite}.blind{animation:blind 75s ease-in-out infinite;transform-box:fill-box;transform-origin:center;transform:scale(0)}.win{animation:winvis 75s ease-in-out infinite;display:inline}@keyframes rain{0%{fill-opacity:var(--o)}3%{fill-opacity:var(--t)}29%,100%{fill-opacity:0}}.rain{animation:rain var(--d) linear infinite}@media (prefers-reduced-motion:reduce){*{animation:none!important}}</style><rect width="1920" height="1080" fill="url(#bg)"/><g><polygon points="2383.92,-147.85 2280,-87.85 2383.92,-27.85" fill="#395e53" fill-opacity="0.38"/><polygon points="1560,87.85 1663.92,147.85 1663.92,27.85" fill="#365665" fill-opacity="0.38"/><polygon points="0,120 -103.92,60 -103.92,180" fill="#365665" fill-opacity="0.38"/><polygon points="1303.92,60 1200,120 1303.92,180" fill="#365665" fill-opacity="0.38"/><polygon points="2040,1159.23 1936.08,1099.23 1936.08,1219.23" fill="#365665" fill-opacity="0.38"/><polygon points="1080,919.23 1183.92,979.23 1183.92,859.23" fill="#395e53" fill-opacity="0.38"/><polygon points="960,120 856.08,60 856.08,180" fill="#365665" fill-opacity="0.38"/><polygon points="2056.08,-60 2160,-120 2056.08,-180" fill="#365665" fill-opacity="0.38"/><polygon points="-120,-87.85 -223.92,-147.85 -223.92,-27.85" fill="#365665" fill-opacity="0.38"/><polygon points="2023.92,771.38 2023.92,891.38 2127.85,831.38" fill="#395e53" fill-opacity="0.38"/><polygon points="1560,-87.85 1456.08,-147.85 1456.08,-27.85" fill="#365665" fill-opacity="0.38"/><polygon points="343.92,891.38 240,951.38 343.92,1011.38" fill="#365665" fill-opacity="0.38"/><polygon points="-223.92,563.54 -120,503.54 -223.92,443.54" fill="#365665" fill-opacity="0.38"/><polygon points="1696.08,683.54 1696.08,563.54 1592.15,623.54" fill="#395e53" fill-opacity="0.38"/><polygon points="240,535.69 136.08,475.69 136.08,595.69" fill="#365665" fill-opacity="0.38"/><polygon points="360,-87.85 256.08,-147.85 256.08,-27.85" fill="#365665" fill-opacity="0.38"/><polygon points="2023.92,475.69 1920,535.69 2023.92,595.69" fill="#395e53" fill-opacity="0.38"/><polygon points="823.92,891.38 720,951.38 823.92,1011.38" fill="#395e53" fill-opacity="0.38"/><polygon points="463.92,683.54 360,743.54 463.92,803.54" fill="#365665" fill-opacity="0.38"/><polygon points="2143.92,147.85 2143.92,267.85 2247.85,207.85" fill="#395e53" fill-opacity="0.38"/><polygon points="1320,-327.85 1423.92,-267.85 1423.92,-387.85" fill="#365665" fill-opacity="0.38"/><polygon points="2160,1127.08 2263.92,1187.08 2263.92,1067.08" fill="#395e53" fill-opacity="0.38"/><polygon points="1320,503.54 1423.92,563.54 1423.92,443.54" fill="#365665" fill-opacity="0.38"/><polygon points="256.08,267.85 256.08,147.85 152.15,207.85" fill="#365665" fill-opacity="0.38"/><polygon points="-343.92,771.38 -240,711.38 -343.92,651.38" fill="#395e53" fill-opacity="0.38"/><polygon points="583.92,-60 583.92,60 687.85,0" fill="#365665" fill-opacity="0.38"/><polygon points="1543.92,1307.08 1440,1367.08 1543.92,1427.08" fill="#395e53" fill-opacity="0.38"/><polygon points="1080,-327.85 1183.92,-267.85 1183.92,-387.85" fill="#395e53" fill-opacity="0.38"/><polygon points="-240,1367.08 -343.92,1307.08 -343.92,1427.08" fill="#395e53" fill-opacity="0.38"/><polygon points="1303.92,1307.08 1200,1367.08 1303.92,1427.08" fill="#365665" fill-opacity="0.38"/><polygon points="703.92,-267.85 703.92,-147.85 807.85,-207.85" fill="#395e53" fill-opacity="0.38"/><polygon points="16.08,-267.85 120,-327.85 16.08,-387.85" fill="#365665" fill-opacity="0.38"/><polygon points="1783.92,891.38 1680,951.38 1783.92,1011.38" fill="#365665" fill-opacity="0.38"/><polygon points="16.08,979.23 120,919.23 16.08,859.23" fill="#365665" fill-opacity="0.38"/><polygon points="480,1127.08 583.92,1187.08 583.92,1067.08" fill="#395e53" fill-opacity="0.38"/><polygon points="1903.92,-147.85 1800,-87.85 1903.92,-27.85" fill="#365665" fill-opacity="0.38"/><polygon class="light" style="animation-delay:-2.95s;animation-duration:11s" points="-16.08,-147.85 -120,-87.85 -223.92,-147.85 -223.92,-267.85 -120,-327.85 -16.08,-267.85" fill="#365665" fill-opacity="0" stroke="#2a424f" stroke-opacity="0.27" stroke-width="1.4"/><polygon class="light" style="animation-delay:-6.89s;animation-duration:10.63s" points="223.92,-147.85 120,-87.85 16.08,-147.85 16.08,-267.85 120,-327.85 223.92,-267.85" fill="#365665" fill-opacity="0" stroke="#2a424f" stroke-opacity="0.27" stroke-width="1.4"/><polygon class="light" style="animation-delay:-6.66s;animation-duration:9.36s" points="463.92,-147.85 360,-87.85 256.08,-147.85 256.08,-267.85 360,-327.85 463.92,-267.85" fill="#365665" fill-opacity="0" stroke="#2a424f" stroke-opacity="0.27" stroke-width="1.4"/><polygon class="light" style="animation-delay:-6.78s;animation-duration:7.65s" points="703.92,-147.85 600,-87.85 496.08,-147.85 496.08,-267.85 600,-327.85 703.92,-267.85" fill="#365665" fill-opacity="0" stroke="#2a424f" stroke-opacity="0.27" stroke-width="1.4"/><polygon class="light" style="animation-delay:-0.74s;animation-duration:11.22s" points="943.92,-147.85 840,-87.85 736.08,-147.85 736.08,-267.85 840,-327.85 943.92,-267.85" fill="#365665" fill-opacity="0" stroke="#2a424f" stroke-opacity="0.27" stroke-width="1.4"/><polygon class="light" style="animation-delay:-7.91s;animation-duration:9.23s" points="1183.92,-147.85 1080,-87.85 976.08,-147.85 976.08,-267.85 1080,-327.85 1183.92,-267.85" fill="#365665" fill-opacity="0" stroke="#2a424f" stroke-opacity="0.27" stroke-width="1.4"/><polygon class="light" style="animation-delay:-1.7s;animation-duration:10.28s" points="1423.92,-147.85 1320,-87.85 1216.08,-147.85 1216.08,-267.85 1320,-327.85 1423.92,-267.85" fill="#365665" fill-opacity="0" stroke="#2a424f" stroke-opacity="0.27" stroke-width="1.4"/><polygon class="light" style="animation-delay:-2.73s;animation-duration:10.69s" points="1663.92,-147.85 1560,-87.85 1456.08,-147.85 1456.08,-267.85 1560,-327.85 1663.92,-267.85" fill="#365665" fill-opacity="0" stroke="#2a424f" stroke-opacity="0.27" stroke-width="1.4"/><polygon class="light" style="animation-delay:-4.87s;animation-duration:11.06s" points="1903.92,-147.85 1800,-87.85 1696.08,-147.85 1696.08,-267.85 1800,-327.85 1903.92,-267.85" fill="#365665" fill-opacity="0" stroke="#2a424f" stroke-opacity="0.27" stroke-width="1.4"/><polygon class="light" style="animation-delay:-6.23s;animation-duration:11.11s" points="2143.92,-147.85 2040,-87.85 1936.08,-147.85 1936.08,-267.85 2040,-327.85 2143.92,-267.85" fill="#365665" fill-opacity="0" stroke="#2a424f" stroke-opacity="0.27" stroke-width="1.4"/><polygon class="light" style="animation-delay:-4.07s;animation-duration:7.22s" points="2383.92,-147.85 2280,-87.85 2176.08,-147.85 2176.08,-267.85 2280,-327.85 2383.92,-267.85" fill="#365665" fill-opacity="0" stroke="#2a424f" stroke-opacity="0.27" stroke-width="1.4"/><polygon class="light" style="animation-delay:-8.1s;animation-duration:8.76s" points="-136.08,60 -240,120 -343.92,60 -343.92,-60 -240,-120 -136.08,-60" fill="#365665" fill-opacity="0" stroke="#2a424f" stroke-opacity="0.27" stroke-width="1.4"/><polygon class="light" style="animation-delay:-5.16s;animation-duration:7.62s" points="103.92,60 0,120 -103.92,60 -103.92,-60 0,-120 103.92,-60" fill="#365665" fill-opacity="0" stroke="#2a424f" stroke-opacity="0.27" stroke-width="1.4"/><polygon class="light" style="animation-delay:-5.4s;animation-duration:8.78s" points="343.92,60 240,120 136.08,60 136.08,-60 240,-120 343.92,-60" fill="#365665" fill-opacity="0" stroke="#2a424f" stroke-opacity="0.27" stroke-width="1.4"/><polygon class="light" style="animation-delay:-4.3s;animation-duration:11.76s" points="583.92,60 480,120 376.08,60 376.08,-60 480,-120 583.92,-60" fill="#365665" fill-opacity="0" stroke="#2a424f" stroke-opacity="0.27" stroke-width="1.4"/><polygon class="light" style="animation-delay:-4.78s;animation-duration:11.39s" points="823.92,60 720,120 616.08,60 616.08,-60 720,-120 823.92,-60" fill="#365665" fill-opacity="0" stroke="#2a424f" stroke-opacity="0.27" stroke-width="1.4"/><polygon class="light" style="animation-delay:-2.98s;animation-duration:7.69s" points="1063.92,60 960,120 856.08,60 856.08,-60 960,-120 1063.92,-60" fill="#365665" fill-opacity="0" stroke="#2a424f" stroke-opacity="0.27" stroke-width="1.4"/><polygon class="light" style="animation-delay:-7.07s;animation-duration:9.97s" points="1303.92,60 1200,120 1096.08,60 1096.08,-60 1200,-120 1303.92,-60" fill="#365665" fill-opacity="0" stroke="#2a424f" stroke-opacity="0.27" stroke-width="1.4"/><polygon class="light" style="animation-delay:-0.09s;animation-duration:9.78s" points="1543.92,60 1440,120 1336.08,60 1336.08,-60 1440,-120 1543.92,-60" fill="#365665" fill-opacity="0" stroke="#2a424f" stroke-opacity="0.27" stroke-width="1.4"/><polygon class="light" style="animation-delay:-4.73s;animation-duration:8.89s" points="1783.92,60 1680,120 1576.08,60 1576.08,-60 1680,-120 1783.92,-60" fill="#365665" fill-opacity="0" stroke="#2a424f" stroke-opacity="0.27" stroke-width="1.4"/><polygon class="light" style="animation-delay:-3.43s;animation-duration:9.7s" points="2023.92,60 1920,120 1816.08,60 1816.08,-60 1920,-120 2023.92,-60" fill="#365665" fill-opacity="0" stroke="#2a424f" stroke-opacity="0.27" stroke-width="1.4"/><polygon class="light" style="animation-delay:-7.13s;animation-duration:8.61s" points="2263.92,60 2160,120 2056.08,60 2056.08,-60 2160,-120 2263.92,-60" fill="#365665" fill-opacity="0" stroke="#2a424f" stroke-opacity="0.27" stroke-width="1.4"/><polygon class="light" style="animation-delay:-7.07s;animation-duration:8.61s" points="-16.08,267.85 -120,327.85 -223.92,267.85 -223.92,147.85 -120,87.85 -16.08,147.85" fill="#365665" fill-opacity="0" stroke="#2a424f" stroke-opacity="0.27" stroke-width="1.4"/><polygon class="light" style="animation-delay:-4.49s;animation-duration:10.99s" points="223.92,267.85 120,327.85 16.08,267.85 16.08,147.85 120,87.85 223.92,147.85" fill="#365665" fill-opacity="0" stroke="#2a424f" stroke-opacity="0.27" stroke-width="1.4"/><polygon class="light" style="animation-delay:-0.48s;animation-duration:11.27s" points="463.92,267.85 360,327.85 256.08,267.85 256.08,147.85 360,87.85 463.92,147.85" fill="#365665" fill-opacity="0" stroke="#2a424f" stroke-opacity="0.27" stroke-width="1.4"/><polygon class="light" style="animation-delay:-4.81s;animation-duration:10.85s" points="703.92,267.85 600,327.85 496.08,267.85 496.08,147.85 600,87.85 703.92,147.85" fill="#365665" fill-opacity="0" stroke="#2a424f" stroke-opacity="0.27" stroke-width="1.4"/><polygon class="light" style="animation-delay:-1.27s;animation-duration:8.6s" points="943.92,267.85 840,327.85 736.08,267.85 736.08,147.85 840,87.85 943.92,147.85" fill="#365665" fill-opacity="0" stroke="#2a424f" stroke-opacity="0.27" stroke-width="1.4"/><polygon class="light" style="animation-delay:-7.86s;animation-duration:10.5s" points="1183.92,267.85 1080,327.85 976.08,267.85 976.08,147.85 1080,87.85 1183.92,147.85" fill="#365665" fill-opacity="0" stroke="#2a424f" stroke-opacity="0.27" stroke-width="1.4"/><polygon class="light" style="animation-delay:-2.27s;animation-duration:10.27s" points="1423.92,267.85 1320,327.85 1216.08,267.85 1216.08,147.85 1320,87.85 1423.92,147.85" fill="#365665" fill-opacity="0" stroke="#2a424f" stroke-opacity="0.27" stroke-width="1.4"/><polygon class="light" style="animation-delay:-8.49s;animation-duration:10.3s" points="1663.92,267.85 1560,327.85 1456.08,267.85 1456.08,147.85 1560,87.85 1663.92,147.85" fill="#365665" fill-opacity="0" stroke="#2a424f" stroke-opacity="0.27" stroke-width="1.4"/><polygon class="light" style="animation-delay:-1.42s;animation-duration:8.76s" points="1903.92,267.85 1800,327.85 1696.08,267.85 1696.08,147.85 1800,87.85 1903.92,147.85" fill="#365665" fill-opacity="0" stroke="#2a424f" stroke-opacity="0.27" stroke-width="1.4"/><polygon class="light" style="animation-delay:-3.49s;animation-duration:7.78s" points="2143.92,267.85 2040,327.85 1936.08,267.85 1936.08,147.85 2040,87.85 2143.92,147.85" fill="#365665" fill-opacity="0" stroke="#2a424f" stroke-opacity="0.27" stroke-width="1.4"/><polygon class="light" style="animation-delay:-5.81s;animation-duration:7.16s" points="2383.92,267.85 2280,327.85 2176.08,267.85 2176.08,147.85 2280,87.85 2383.92,147.85" fill="#365665" fill-opacity="0" stroke="#2a424f" stroke-opacity="0.27" stroke-width="1.4"/><polygon class="light" style="animation-delay:-8.01s;animation-duration:8.25s" points="-136.08,475.69 -240,535.69 -343.92,475.69 -343.92,355.69 -240,295.69 -136.08,355.69" fill="#365665" fill-opacity="0" stroke="#2a424f" stroke-opacity="0.27" stroke-width="1.4"/><polygon class="light" style="animation-delay:-7.67s;animation-duration:7.69s" points="103.92,475.69 0,535.69 -103.92,475.69 -103.92,355.69 0,295.69 103.92,355.69" fill="#365665" fill-opacity="0" stroke="#2a424f" stroke-opacity="0.27" stroke-width="1.4"/><polygon class="light" style="animation-delay:-2.86s;animation-duration:7.36s" points="343.92,475.69 240,535.69 136.08,475.69 136.08,355.69 240,295.69 343.92,355.69" fill="#365665" fill-opacity="0" stroke="#2a424f" stroke-opacity="0.27" stroke-width="1.4"/><polygon class="light" style="animation-delay:-0.33s;animation-duration:10.73s" points="583.92,475.69 480,535.69 376.08,475.69 376.08,355.69 480,295.69 583.92,355.69" fill="#365665" fill-opacity="0" stroke="#2a424f" stroke-opacity="0.27" stroke-width="1.4"/><polygon class="light" style="animation-delay:-6.71s;animation-duration:7.87s" points="823.92,475.69 720,535.69 616.08,475.69 616.08,355.69 720,295.69 823.92,355.69" fill="#365665" fill-opacity="0" stroke="#2a424f" stroke-opacity="0.27" stroke-width="1.4"/><polygon class="light" style="animation-delay:-4.26s;animation-duration:8.77s" points="1063.92,475.69 960,535.69 856.08,475.69 856.08,355.69 960,295.69 1063.92,355.69" fill="#365665" fill-opacity="0" stroke="#2a424f" stroke-opacity="0.27" stroke-width="1.4"/><polygon class="light" style="animation-delay:-7.16s;animation-duration:8.7s" points="1303.92,475.69 1200,535.69 1096.08,475.69 1096.08,355.69 1200,295.69 1303.92,355.69" fill="#365665" fill-opacity="0" stroke="#2a424f" stroke-opacity="0.27" stroke-width="1.4"/><polygon class="light" style="animation-delay:-0.57s;animation-duration:10.54s" points="1543.92,475.69 1440,535.69 1336.08,475.69 1336.08,355.69 1440,295.69 1543.92,355.69" fill="#365665" fill-opacity="0" stroke="#2a424f" stroke-opacity="0.27" stroke-width="1.4"/><polygon class="light" style="animation-delay:-8.53s;animation-duration:9.26s" points="1783.92,475.69 1680,535.69 1576.08,475.69 1576.08,355.69 1680,295.69 1783.92,355.69" fill="#365665" fill-opacity="0" stroke="#2a424f" stroke-opacity="0.27" stroke-width="1.4"/><polygon class="light" style="animation-delay:-4.21s;animation-duration:11.22s" points="2023.92,475.69 1920,535.69 1816.08,475.69 1816.08,355.69 1920,295.69 2023.92,355.69" fill="#365665" fill-opacity="0" stroke="#2a424f" stroke-opacity="0.27" stroke-width="1.4"/><polygon class="light" style="animation-delay:-4.31s;animation-duration:7.79s" points="2263.92,475.69 2160,535.69 2056.08,475.69 2056.08,355.69 2160,295.69 2263.92,355.69" fill="#365665" fill-opacity="0" stroke="#2a424f" stroke-opacity="0.27" stroke-width="1.4"/><polygon class="light" style="animation-delay:-4.25s;animation-duration:8.58s" points="-16.08,683.54 -120,743.54 -223.92,683.54 -223.92,563.54 -120,503.54 -16.08,563.54" fill="#365665" fill-opacity="0" stroke="#2a424f" stroke-opacity="0.27" stroke-width="1.4"/><polygon class="light" style="animation-delay:-8.08s;animation-duration:11.56s" points="223.92,683.54 120,743.54 16.08,683.54 16.08,563.54 120,503.54 223.92,563.54" fill="#365665" fill-opacity="0" stroke="#2a424f" stroke-opacity="0.27" stroke-width="1.4"/><polygon class="light" style="animation-delay:-3.69s;animation-duration:8.08s" points="463.92,683.54 360,743.54 256.08,683.54 256.08,563.54 360,503.54 463.92,563.54" fill="#365665" fill-opacity="0" stroke="#2a424f" stroke-opacity="0.27" stroke-width="1.4"/><polygon class="light" style="animation-delay:-7.54s;animation-duration:10.25s" points="703.92,683.54 600,743.54 496.08,683.54 496.08,563.54 600,503.54 703.92,563.54" fill="#365665" fill-opacity="0" stroke="#2a424f" stroke-opacity="0.27" stroke-width="1.4"/><polygon class="light" style="animation-delay:-3.82s;animation-duration:11.4s" points="943.92,683.54 840,743.54 736.08,683.54 736.08,563.54 840,503.54 943.92,563.54" fill="#365665" fill-opacity="0" stroke="#2a424f" stroke-opacity="0.27" stroke-width="1.4"/><polygon class="light" style="animation-delay:-4.6s;animation-duration:9.95s" points="1183.92,683.54 1080,743.54 976.08,683.54 976.08,563.54 1080,503.54 1183.92,563.54" fill="#365665" fill-opacity="0" stroke="#2a424f" stroke-opacity="0.27" stroke-width="1.4"/><polygon class="light" style="animation-delay:-0.93s;animation-duration:8.52s" points="1423.92,683.54 1320,743.54 1216.08,683.54 1216.08,563.54 1320,503.54 1423.92,563.54" fill="#365665" fill-opacity="0" stroke="#2a424f" stroke-opacity="0.27" stroke-width="1.4"/><polygon class="light" style="animation-delay:-5.84s;animation-duration:10.88s" points="1663.92,683.54 1560,743.54 1456.08,683.54 1456.08,563.54 1560,503.54 1663.92,563.54" fill="#365665" fill-opacity="0" stroke="#2a424f" stroke-opacity="0.27" stroke-width="1.4"/><polygon class="light" style="animation-delay:-1.61s;animation-duration:9.79s" points="1903.92,683.54 1800,743.54 1696.08,683.54 1696.08,563.54 1800,503.54 1903.92,563.54" fill="#365665" fill-opacity="0" stroke="#2a424f" stroke-opacity="0.27" stroke-width="1.4"/><polygon class="light" style="animation-delay:-8.26s;animation-duration:7.67s" points="2143.92,683.54 2040,743.54 1936.08,683.54 1936.08,563.54 2040,503.54 2143.92,563.54" fill="#365665" fill-opacity="0" stroke="#2a424f" stroke-opacity="0.27" stroke-width="1.4"/><polygon class="light" style="animation-delay:-8.21s;animation-duration:9.29s" points="2383.92,683.54 2280,743.54 2176.08,683.54 2176.08,563.54 2280,503.54 2383.92,563.54" fill="#365665" fill-opacity="0" stroke="#2a424f" stroke-opacity="0.27" stroke-width="1.4"/><polygon class="light" style="animation-delay:-2.23s;animation-duration:9.75s" points="-136.08,891.38 -240,951.38 -343.92,891.38 -343.92,771.38 -240,711.38 -136.08,771.38" fill="#365665" fill-opacity="0" stroke="#2a424f" stroke-opacity="0.27" stroke-width="1.4"/><polygon class="light" style="animation-delay:-7.53s;animation-duration:9.01s" points="103.92,891.38 0,951.38 -103.92,891.38 -103.92,771.38 0,711.38 103.92,771.38" fill="#365665" fill-opacity="0" stroke="#2a424f" stroke-opacity="0.27" stroke-width="1.4"/><polygon class="light" style="animation-delay:-5.62s;animation-duration:9.6s" points="343.92,891.38 240,951.38 136.08,891.38 136.08,771.38 240,711.38 343.92,771.38" fill="#365665" fill-opacity="0" stroke="#2a424f" stroke-opacity="0.27" stroke-width="1.4"/><polygon class="light" style="animation-delay:-1.69s;animation-duration:9.16s" points="583.92,891.38 480,951.38 376.08,891.38 376.08,771.38 480,711.38 583.92,771.38" fill="#365665" fill-opacity="0" stroke="#2a424f" stroke-opacity="0.27" stroke-width="1.4"/><polygon class="light" style="animation-delay:-7.84s;animation-duration:11.42s" points="823.92,891.38 720,951.38 616.08,891.38 616.08,771.38 720,711.38 823.92,771.38" fill="#365665" fill-opacity="0" stroke="#2a424f" stroke-opacity="0.27" stroke-width="1.4"/><polygon class="light" style="animation-delay:-7.53s;animation-duration:8.07s" points="1063.92,891.38 960,951.38 856.08,891.38 856.08,771.38 960,711.38 1063.92,771.38" fill="#365665" fill-opacity="0" stroke="#2a424f" stroke-opacity="0.27" stroke-width="1.4"/><polygon class="light" style="animation-delay:-3.93s;animation-duration:11.05s" points="1303.92,891.38 1200,951.38 1096.08,891.38 1096.08,771.38 1200,711.38 1303.92,771.38" fill="#365665" fill-opacity="0" stroke="#2a424f" stroke-opacity="0.27" stroke-width="1.4"/><polygon class="light" style="animation-delay:-3.97s;animation-duration:8.27s" points="1543.92,891.38 1440,951.38 1336.08,891.38 1336.08,771.38 1440,711.38 1543.92,771.38" fill="#365665" fill-opacity="0" stroke="#2a424f" stroke-opacity="0.27" stroke-width="1.4"/><polygon class="light" style="animation-delay:-0.91s;animation-duration:7.75s" points="1783.92,891.38 1680,951.38 1576.08,891.38 1576.08,771.38 1680,711.38 1783.92,771.38" fill="#365665" fill-opacity="0" stroke="#2a424f" stroke-opacity="0.27" stroke-width="1.4"/><polygon class="light" style="animation-delay:-3.74s;animation-duration:7.82s" points="2023.92,891.38 1920,951.38 1816.08,891.38 1816.08,771.38 1920,711.38 2023.92,771.38" fill="#365665" fill-opacity="0" stroke="#2a424f" stroke-opacity="0.27" stroke-width="1.4"/><polygon class="light" style="animation-delay:-6.86s;animation-duration:11.17s" points="2263.92,891.38 2160,951.38 2056.08,891.38 2056.08,771.38 2160,711.38 2263.92,771.38" fill="#365665" fill-opacity="0" stroke="#2a424f" stroke-opacity="0.27" stroke-width="1.4"/><polygon class="light" style="animation-delay:-7.92s;animation-duration:11.61s" points="-16.08,1099.23 -120,1159.23 -223.92,1099.23 -223.92,979.23 -120,919.23 -16.08,979.23" fill="#365665" fill-opacity="0" stroke="#2a424f" stroke-opacity="0.27" stroke-width="1.4"/><polygon class="light" style="animation-delay:-4.13s;animation-duration:8.08s" points="223.92,1099.23 120,1159.23 16.08,1099.23 16.08,979.23 120,919.23 223.92,979.23" fill="#365665" fill-opacity="0" stroke="#2a424f" stroke-opacity="0.27" stroke-width="1.4"/><polygon class="light" style="animation-delay:-2.52s;animation-duration:9.58s" points="463.92,1099.23 360,1159.23 256.08,1099.23 256.08,979.23 360,919.23 463.92,979.23" fill="#365665" fill-opacity="0" stroke="#2a424f" stroke-opacity="0.27" stroke-width="1.4"/><polygon class="light" style="animation-delay:-6.49s;animation-duration:9.96s" points="703.92,1099.23 600,1159.23 496.08,1099.23 496.08,979.23 600,919.23 703.92,979.23" fill="#365665" fill-opacity="0" stroke="#2a424f" stroke-opacity="0.27" stroke-width="1.4"/><polygon class="light" style="animation-delay:-0.8s;animation-duration:11.71s" points="943.92,1099.23 840,1159.23 736.08,1099.23 736.08,979.23 840,919.23 943.92,979.23" fill="#365665" fill-opacity="0" stroke="#2a424f" stroke-opacity="0.27" stroke-width="1.4"/><polygon class="light" style="animation-delay:-6.53s;animation-duration:7.99s" points="1183.92,1099.23 1080,1159.23 976.08,1099.23 976.08,979.23 1080,919.23 1183.92,979.23" fill="#365665" fill-opacity="0" stroke="#2a424f" stroke-opacity="0.27" stroke-width="1.4"/><polygon class="light" style="animation-delay:-5.31s;animation-duration:10.04s" points="1423.92,1099.23 1320,1159.23 1216.08,1099.23 1216.08,979.23 1320,919.23 1423.92,979.23" fill="#365665" fill-opacity="0" stroke="#2a424f" stroke-opacity="0.27" stroke-width="1.4"/><polygon class="light" style="animation-delay:-8.58s;animation-duration:11.77s" points="1663.92,1099.23 1560,1159.23 1456.08,1099.23 1456.08,979.23 1560,919.23 1663.92,979.23" fill="#365665" fill-opacity="0" stroke="#2a424f" stroke-opacity="0.27" stroke-width="1.4"/><polygon class="light" style="animation-delay:-5.92s;animation-duration:11.56s" points="1903.92,1099.23 1800,1159.23 1696.08,1099.23 1696.08,979.23 1800,919.23 1903.92,979.23" fill="#365665" fill-opacity="0" stroke="#2a424f" stroke-opacity="0.27" stroke-width="1.4"/><polygon class="light" style="animation-delay:-4.68s;animation-duration:11.18s" points="2143.92,1099.23 2040,1159.23 1936.08,1099.23 1936.08,979.23 2040,919.23 2143.92,979.23" fill="#365665" fill-opacity="0" stroke="#2a424f" stroke-opacity="0.27" stroke-width="1.4"/><polygon class="light" style="animation-delay:-7.26s;animation-duration:10.53s" points="2383.92,1099.23 2280,1159.23 2176.08,1099.23 2176.08,979.23 2280,919.23 2383.92,979.23" fill="#365665" fill-opacity="0" stroke="#2a424f" stroke-opacity="0.27" stroke-width="1.4"/><polygon class="light" style="animation-delay:-4.42s;animation-duration:10.62s" points="-136.08,1307.08 -240,1367.08 -343.92,1307.08 -343.92,1187.08 -240,1127.08 -136.08,1187.08" fill="#365665" fill-opacity="0" stroke="#2a424f" stroke-opacity="0.27" stroke-width="1.4"/><polygon class="light" style="animation-delay:-3.24s;animation-duration:11.11s" points="103.92,1307.08 0,1367.08 -103.92,1307.08 -103.92,1187.08 0,1127.08 103.92,1187.08" fill="#365665" fill-opacity="0" stroke="#2a424f" stroke-opacity="0.27" stroke-width="1.4"/><polygon class="light" style="animation-delay:-2.39s;animation-duration:10.73s" points="343.92,1307.08 240,1367.08 136.08,1307.08 136.08,1187.08 240,1127.08 343.92,1187.08" fill="#365665" fill-opacity="0" stroke="#2a424f" stroke-opacity="0.27" stroke-width="1.4"/><polygon class="light" style="animation-delay:-7.91s;animation-duration:10.7s" points="583.92,1307.08 480,1367.08 376.08,1307.08 376.08,1187.08 480,1127.08 583.92,1187.08" fill="#365665" fill-opacity="0" stroke="#2a424f" stroke-opacity="0.27" stroke-width="1.4"/><polygon class="light" style="animation-delay:-4.57s;animation-duration:8.29s" points="823.92,1307.08 720,1367.08 616.08,1307.08 616.08,1187.08 720,1127.08 823.92,1187.08" fill="#365665" fill-opacity="0" stroke="#2a424f" stroke-opacity="0.27" stroke-width="1.4"/><polygon class="light" style="animation-delay:-8.2s;animation-duration:10.73s" points="1063.92,1307.08 960,1367.08 856.08,1307.08 856.08,1187.08 960,1127.08 1063.92,1187.08" fill="#365665" fill-opacity="0" stroke="#2a424f" stroke-opacity="0.27" stroke-width="1.4"/><polygon class="light" style="animation-delay:-2.03s;animation-duration:10s" points="1303.92,1307.08 1200,1367.08 1096.08,1307.08 1096.08,1187.08 1200,1127.08 1303.92,1187.08" fill="#365665" fill-opacity="0" stroke="#2a424f" stroke-opacity="0.27" stroke-width="1.4"/><polygon class="light" style="animation-delay:-2.58s;animation-duration:9.15s" points="1543.92,1307.08 1440,1367.08 1336.08,1307.08 1336.08,1187.08 1440,1127.08 1543.92,1187.08" fill="#365665" fill-opacity="0" stroke="#2a424f" stroke-opacity="0.27" stroke-width="1.4"/><polygon class="light" style="animation-delay:-1.96s;animation-duration:9.95s" points="1783.92,1307.08 1680,1367.08 1576.08,1307.08 1576.08,1187.08 1680,1127.08 1783.92,1187.08" fill="#365665" fill-opacity="0" stroke="#2a424f" stroke-opacity="0.27" stroke-width="1.4"/><polygon class="light" style="animation-delay:-3.19s;animation-duration:11.19s" points="2023.92,1307.08 1920,1367.08 1816.08,1307.08 1816.08,1187.08 1920,1127.08 2023.92,1187.08" fill="#365665" fill-opacity="0" stroke="#2a424f" stroke-opacity="0.27" stroke-width="1.4"/><polygon class="light" style="animation-delay:-1.05s;animation-duration:10.78s" points="2263.92,1307.08 2160,1367.08 2056.08,1307.08 2056.08,1187.08 2160,1127.08 2263.92,1187.08" fill="#365665" fill-opacity="0" stroke="#2a424f" stroke-opacity="0.27" stroke-width="1.4"/></g><circle cx="960" cy="540" r="302.4" fill="url(#halo)"/><rect width="1920" height="1080" fill="url(#vig)"/><g transform="translate(960,540) scale(1.84)" filter="url(#ink)"><polygon points="76.21,44 0,88 -76.21,44 -76.21,-44 0,-88 76.21,-44" fill="none" stroke="#365665" stroke-width="3.6" stroke-opacity="1"/><polygon points="0,-80 69.28,40 -69.28,40" fill="none" stroke="#395e53" stroke-width="3" stroke-opacity="1"/><polygon points="41.57,24 0,48 -41.57,24 -41.57,-24 0,-48 41.57,-24" fill="none" stroke="#365665" stroke-width="2.6" stroke-opacity="0.8"/><polygon points="0,42 -36.37,-21 36.37,-21" fill="none" stroke="#395e53" stroke-width="2.4" stroke-opacity="0.8"/><polygon points="13.86,8 0,16 -13.86,8 -13.86,-8 0,-16 13.86,-8" fill="#365665" fill-opacity="0.28" stroke="#365665" stroke-width="2"/></g></svg>
